<mxfile host="app.diagrams.net" modified="2023-12-11T12:46:38.890Z" agent="Mozilla/5.0 (Windows NT 10.0; Win64; x64) AppleWebKit/537.36 (KHTML, like Gecko) Chrome/119.0.0.0 Safari/537.36" etag="YWaLPKoXJvoIiXWfhpaV" version="22.1.7" type="github">
  <diagram name="Page-1" id="XbprYsbQrqLquQ2ZIKMu">
    <mxGraphModel dx="1434" dy="780" grid="1" gridSize="10" guides="1" tooltips="1" connect="1" arrows="1" fold="1" page="1" pageScale="1" pageWidth="850" pageHeight="1100" math="0" shadow="0">
      <root>
        <mxCell id="0" />
        <mxCell id="1" parent="0" />
        <mxCell id="wOszq9mZo-4M3KtFMCyA-6" style="edgeStyle=orthogonalEdgeStyle;rounded=0;orthogonalLoop=1;jettySize=auto;html=1;exitX=0;exitY=1;exitDx=0;exitDy=0;" edge="1" parent="1" source="wOszq9mZo-4M3KtFMCyA-1" target="wOszq9mZo-4M3KtFMCyA-4">
          <mxGeometry relative="1" as="geometry" />
        </mxCell>
        <mxCell id="wOszq9mZo-4M3KtFMCyA-7" style="edgeStyle=orthogonalEdgeStyle;rounded=0;orthogonalLoop=1;jettySize=auto;html=1;exitX=0.25;exitY=1;exitDx=0;exitDy=0;entryX=0.5;entryY=0;entryDx=0;entryDy=0;" edge="1" parent="1" source="wOszq9mZo-4M3KtFMCyA-1" target="wOszq9mZo-4M3KtFMCyA-5">
          <mxGeometry relative="1" as="geometry" />
        </mxCell>
        <mxCell id="wOszq9mZo-4M3KtFMCyA-8" style="edgeStyle=orthogonalEdgeStyle;rounded=0;orthogonalLoop=1;jettySize=auto;html=1;exitX=0.75;exitY=1;exitDx=0;exitDy=0;entryX=0.5;entryY=0;entryDx=0;entryDy=0;" edge="1" parent="1" source="wOszq9mZo-4M3KtFMCyA-1" target="wOszq9mZo-4M3KtFMCyA-3">
          <mxGeometry relative="1" as="geometry" />
        </mxCell>
        <mxCell id="wOszq9mZo-4M3KtFMCyA-9" style="edgeStyle=orthogonalEdgeStyle;rounded=0;orthogonalLoop=1;jettySize=auto;html=1;exitX=1;exitY=1;exitDx=0;exitDy=0;" edge="1" parent="1" source="wOszq9mZo-4M3KtFMCyA-1" target="wOszq9mZo-4M3KtFMCyA-2">
          <mxGeometry relative="1" as="geometry" />
        </mxCell>
        <mxCell id="wOszq9mZo-4M3KtFMCyA-1" value="&lt;font style=&quot;font-size: 20px;&quot;&gt;Item Control&lt;/font&gt;" style="rounded=0;whiteSpace=wrap;html=1;" vertex="1" parent="1">
          <mxGeometry x="280" y="160" width="260" height="120" as="geometry" />
        </mxCell>
        <mxCell id="wOszq9mZo-4M3KtFMCyA-2" value="&lt;font style=&quot;font-size: 16px;&quot;&gt;Item&lt;/font&gt;" style="whiteSpace=wrap;html=1;aspect=fixed;" vertex="1" parent="1">
          <mxGeometry x="550" y="370" width="90" height="90" as="geometry" />
        </mxCell>
        <mxCell id="wOszq9mZo-4M3KtFMCyA-3" value="&lt;font style=&quot;font-size: 17px;&quot;&gt;Item Detail&lt;/font&gt;" style="whiteSpace=wrap;html=1;aspect=fixed;" vertex="1" parent="1">
          <mxGeometry x="440" y="370" width="90" height="90" as="geometry" />
        </mxCell>
        <mxCell id="wOszq9mZo-4M3KtFMCyA-4" value="&lt;font style=&quot;font-size: 16px;&quot;&gt;Item List&lt;/font&gt;" style="whiteSpace=wrap;html=1;aspect=fixed;" vertex="1" parent="1">
          <mxGeometry x="210" y="370" width="90" height="90" as="geometry" />
        </mxCell>
        <mxCell id="wOszq9mZo-4M3KtFMCyA-5" value="&lt;font style=&quot;font-size: 17px;&quot;&gt;New Item Form&lt;/font&gt;" style="whiteSpace=wrap;html=1;aspect=fixed;" vertex="1" parent="1">
          <mxGeometry x="330" y="370" width="90" height="90" as="geometry" />
        </mxCell>
      </root>
    </mxGraphModel>
  </diagram>
</mxfile>
